<svg width="175" height="45" viewBox="0 0 175 45" fill="none" xmlns="http://www.w3.org/2000/svg">
<circle cx="167" cy="33" r="8" fill="#22C55E"/>
<path d="M9.54545 33H2.15199V11.1818H9.6946C11.8608 11.1818 13.7216 11.6186 15.277 12.4922C16.8395 13.3587 18.0398 14.6051 18.8778 16.2315C19.7159 17.858 20.1349 19.804 20.1349 22.0696C20.1349 24.3423 19.7124 26.2955 18.8672 27.929C18.0291 29.5625 16.8182 30.8161 15.2344 31.6896C13.6577 32.5632 11.7614 33 9.54545 33ZM6.1044 29.5803H9.35369C10.8736 29.5803 12.1413 29.3033 13.157 28.7493C14.1726 28.1882 14.9361 27.3537 15.4474 26.2457C15.9588 25.1307 16.2145 23.7386 16.2145 22.0696C16.2145 20.4006 15.9588 19.0156 15.4474 17.9148C14.9361 16.8068 14.1797 15.9794 13.1783 15.4325C12.1839 14.8786 10.9482 14.6016 9.47088 14.6016H6.1044V29.5803ZM23.7198 33V16.6364H27.5763V33H23.7198ZM25.6587 14.3139C25.0479 14.3139 24.5224 14.1115 24.082 13.7067C23.6417 13.2947 23.4215 12.8011 23.4215 12.2259C23.4215 11.6435 23.6417 11.1499 24.082 10.745C24.5224 10.3331 25.0479 10.1271 25.6587 10.1271C26.2766 10.1271 26.8022 10.3331 27.2354 10.745C27.6758 11.1499 27.896 11.6435 27.896 12.2259C27.896 12.8011 27.6758 13.2947 27.2354 13.7067C26.8022 14.1115 26.2766 14.3139 25.6587 14.3139ZM31.5421 33V16.6364H35.2282V19.4169H35.4199C35.7608 18.4794 36.3255 17.7479 37.1138 17.2223C37.9022 16.6896 38.8432 16.4233 39.937 16.4233C41.0449 16.4233 41.9789 16.6932 42.7388 17.233C43.5059 17.7656 44.0456 18.4936 44.3581 19.4169H44.5286C44.8908 18.5078 45.5016 17.7834 46.361 17.2436C47.2275 16.6967 48.2537 16.4233 49.4398 16.4233C50.9455 16.4233 52.1742 16.8991 53.1259 17.8509C54.0776 18.8026 54.5534 20.1911 54.5534 22.0163V33H50.6863V22.6129C50.6863 21.5973 50.4164 20.8551 49.8766 20.3864C49.3368 19.9105 48.6763 19.6726 47.8951 19.6726C46.9647 19.6726 46.2367 19.9638 45.7111 20.5462C45.1926 21.1214 44.9334 21.8707 44.9334 22.794V33H41.1515V22.4531C41.1515 21.608 40.8958 20.9332 40.3844 20.429C39.8801 19.9247 39.2196 19.6726 38.4029 19.6726C37.8489 19.6726 37.3446 19.8146 36.8901 20.0987C36.4355 20.3757 36.0733 20.7699 35.8034 21.2812C35.5336 21.7855 35.3986 22.375 35.3986 23.0497V33H31.5421ZM63.1747 33.3303C62.1378 33.3303 61.2038 33.1456 60.3729 32.7763C59.549 32.3999 58.8956 31.8459 58.4126 31.1143C57.9368 30.3828 57.6989 29.4808 57.6989 28.4084C57.6989 27.4851 57.8693 26.7216 58.2102 26.1179C58.5511 25.5142 59.0163 25.0312 59.6058 24.669C60.1953 24.3068 60.8594 24.0334 61.598 23.8487C62.3438 23.657 63.1143 23.5185 63.9098 23.4332C64.8686 23.3338 65.6463 23.245 66.2429 23.1669C66.8395 23.0817 67.2727 22.9538 67.5426 22.7834C67.8196 22.6058 67.9581 22.3324 67.9581 21.9631V21.8991C67.9581 21.0966 67.7202 20.4751 67.2443 20.0348C66.7685 19.5945 66.0831 19.3743 65.1882 19.3743C64.2436 19.3743 63.4943 19.5803 62.9403 19.9922C62.3935 20.4041 62.0241 20.8906 61.8324 21.4517L58.2315 20.9403C58.5156 19.946 58.9844 19.1151 59.6378 18.4474C60.2912 17.7727 61.0902 17.2685 62.0348 16.9347C62.9794 16.5938 64.0234 16.4233 65.1669 16.4233C65.9553 16.4233 66.7401 16.5156 67.5213 16.7003C68.3026 16.8849 69.0163 17.1903 69.6626 17.6165C70.3089 18.0355 70.8274 18.6072 71.218 19.3317C71.6158 20.0561 71.8146 20.9616 71.8146 22.0483V33H68.1072V30.7521H67.9794C67.745 31.2067 67.4148 31.6328 66.9886 32.0305C66.5696 32.4212 66.0405 32.7372 65.4013 32.9787C64.7692 33.2131 64.027 33.3303 63.1747 33.3303ZM64.1761 30.4964C64.9503 30.4964 65.6214 30.3437 66.1896 30.0384C66.7578 29.7259 67.1946 29.3139 67.5 28.8026C67.8125 28.2912 67.9688 27.7337 67.9688 27.13V25.2017C67.848 25.3011 67.642 25.3935 67.3509 25.4787C67.0668 25.5639 66.7472 25.6385 66.392 25.7024C66.0369 25.7663 65.6854 25.8232 65.3374 25.8729C64.9893 25.9226 64.6875 25.9652 64.4318 26.0007C63.8565 26.0788 63.3416 26.2067 62.8871 26.3842C62.4325 26.5618 62.0739 26.8104 61.8111 27.13C61.5483 27.4425 61.4169 27.8473 61.4169 28.3445C61.4169 29.0547 61.6761 29.5909 62.1946 29.9531C62.7131 30.3153 63.3736 30.4964 64.1761 30.4964ZM88.6257 20.9616L85.1101 21.3452C85.0107 20.9901 84.8366 20.6562 84.5881 20.3438C84.3466 20.0312 84.0199 19.7791 83.608 19.5874C83.196 19.3956 82.6918 19.2997 82.0952 19.2997C81.2926 19.2997 80.6179 19.4737 80.071 19.8217C79.5312 20.1697 79.2649 20.6207 79.272 21.1747C79.2649 21.6506 79.4389 22.0376 79.794 22.3359C80.1563 22.6342 80.7528 22.8793 81.5838 23.071L84.375 23.6676C85.9233 24.0014 87.0739 24.5305 87.8267 25.255C88.5866 25.9794 88.9702 26.9276 88.9773 28.0994C88.9702 29.1293 88.6683 30.0384 88.0717 30.8267C87.4822 31.608 86.6619 32.2187 85.6108 32.6591C84.5597 33.0994 83.3523 33.3196 81.9886 33.3196C79.9858 33.3196 78.3736 32.9006 77.152 32.0625C75.9304 31.2173 75.2024 30.0419 74.968 28.5362L78.7287 28.174C78.8991 28.9126 79.2614 29.4702 79.8153 29.8466C80.3693 30.223 81.0902 30.4112 81.978 30.4112C82.8942 30.4112 83.6293 30.223 84.1832 29.8466C84.7443 29.4702 85.0249 29.005 85.0249 28.451C85.0249 27.9822 84.8438 27.5952 84.4815 27.2898C84.1264 26.9844 83.5724 26.75 82.8196 26.5866L80.0284 26.0007C78.4588 25.674 77.2976 25.1236 76.5447 24.3494C75.7919 23.5682 75.419 22.581 75.4261 21.3878C75.419 20.3793 75.6925 19.5057 76.2464 18.767C76.8075 18.0213 77.5852 17.446 78.5795 17.0412C79.581 16.6293 80.7351 16.4233 82.0419 16.4233C83.9595 16.4233 85.4688 16.8317 86.5696 17.6484C87.6776 18.4652 88.3629 19.5696 88.6257 20.9616ZM92.3278 33V11.1818H100.51C102.186 11.1818 103.592 11.473 104.728 12.0554C105.872 12.6378 106.735 13.4545 107.317 14.5057C107.907 15.5497 108.201 16.7678 108.201 18.1598C108.201 19.5589 107.903 20.7734 107.306 21.8033C106.717 22.826 105.847 23.6179 104.696 24.179C103.546 24.733 102.132 25.0099 100.456 25.0099H94.6289V21.7287H99.9237C100.904 21.7287 101.706 21.5937 102.331 21.3239C102.956 21.0469 103.418 20.6456 103.716 20.12C104.022 19.5874 104.174 18.9339 104.174 18.1598C104.174 17.3857 104.022 16.7251 103.716 16.1783C103.411 15.6243 102.946 15.2053 102.321 14.9212C101.696 14.63 100.89 14.4844 99.9023 14.4844H96.2802V33H92.3278ZM103.599 23.1136L109 33H104.59L99.2844 23.1136H103.599ZM111.669 33V16.6364H115.526V33H111.669ZM113.608 14.3139C112.997 14.3139 112.472 14.1115 112.031 13.7067C111.591 13.2947 111.371 12.8011 111.371 12.2259C111.371 11.6435 111.591 11.1499 112.031 10.745C112.472 10.3331 112.997 10.1271 113.608 10.1271C114.226 10.1271 114.751 10.3331 115.185 10.745C115.625 11.1499 115.845 11.6435 115.845 12.2259C115.845 12.8011 115.625 13.2947 115.185 13.7067C114.751 14.1115 114.226 14.3139 113.608 14.3139ZM119.278 33V30.5497L127.716 19.9709V19.8324H119.555V16.6364H132.435V19.2678L124.403 29.6655V29.804H132.712V33H119.278ZM139.853 27.8651L139.842 23.2095H140.46L146.341 16.6364H150.847L143.613 24.6903H142.814L139.853 27.8651ZM136.337 33V11.1818H140.194V33H136.337ZM146.607 33L141.28 25.5533L143.88 22.8366L151.22 33H146.607ZM155.99 39.1364C155.464 39.1364 154.978 39.0938 154.53 39.0085C154.09 38.9304 153.738 38.8381 153.476 38.7315L154.371 35.7273C154.932 35.8906 155.432 35.9688 155.873 35.9616C156.313 35.9545 156.7 35.8161 157.034 35.5462C157.375 35.2834 157.662 34.843 157.897 34.2251L158.227 33.3409L152.293 16.6364H156.384L160.155 28.9943H160.326L164.108 16.6364H168.209L161.657 34.9815C161.352 35.848 160.947 36.5902 160.443 37.2081C159.939 37.8331 159.321 38.3089 158.589 38.6357C157.865 38.9695 156.998 39.1364 155.99 39.1364Z" fill="#374151"/>
</svg>
